<?xml version="1.0" standalone="no"?>
<!DOCTYPE svg PUBLIC "-//W3C//DTD SVG 20010904//EN"
 "http://www.w3.org/TR/2001/REC-SVG-20010904/DTD/svg10.dtd">
<svg version="1.0" xmlns="http://www.w3.org/2000/svg"
 width="700.000000pt" height="700.000000pt" viewBox="0 0 700.000000 700.000000"
 preserveAspectRatio="xMidYMid meet">
<metadata>
Created by potrace 1.11, written by Peter Selinger 2001-2013
</metadata>
<g transform="translate(0.000000,700.000000) scale(0.100000,-0.100000)"
fill="#000000" stroke="none">
<path d="M3942 6985 c-18 -8 -36 -14 -40 -15 -35 -2 -162 -53 -342 -138 -103
-48 -474 -233 -480 -239 -3 -2 -6 -413 -7 -911 0 -499 -2 -909 -2 -912 -1 -3
-27 -6 -58 -7 -32 0 -152 -4 -268 -7 -115 -3 -291 -9 -390 -11 -285 -8 -448
-15 -453 -19 -2 -2 -5 -53 -8 -113 -2 -59 -6 -155 -9 -213 -2 -58 -7 -190 -11
-295 -3 -104 -7 -206 -8 -225 l-1 -35 592 -1 c326 -1 598 -4 605 -7 11 -4 13
-372 12 -1921 l0 -1916 458 0 458 0 0 1920 0 1920 438 0 c240 1 498 1 573 0
l136 -1 0 460 0 459 -536 0 c-295 1 -553 1 -573 1 l-38 1 0 1120 c0 616 -3
1120 -7 1120 -5 -1 -23 -7 -41 -15z"/>
</g>
</svg>
